Coordinates
version=1
nRows=14
nColumns=28
inDegrees=yes

Units are S.I. units (second, meters, Newtons, ...)
Angles are in degrees.

endheader
time	pelvis_tilt	pelvis_list	pelvis_rotation	pelvis_tx	pelvis_ty	pelvis_tz	hip_flexion_r	hip_adduction_r	hip_rotation_r	knee_angle_r	ankle_angle_r	subtalar_angle_r	mtp_angle_r	hip_flexion_l	hip_adduction_l	hip_rotation_l	knee_angle_l	socket_flexion	socket_adduction	socket_rotation	socket_tx	socket_ty	socket_tz	foot_flex	lumbar_extension	lumbar_bending	lumbar_rotation
      0.62500000	     -1.75277171	     -4.22734838	      8.40134774	     -0.01380214	      0.98782854	      0.26141913	     25.42190778	      3.46309045	     -8.28584529	     -4.63384193	     18.33261162	    -18.91630732	    -23.11389452	    -11.72444056	     -1.31218633	     19.54517139	    -15.38480384	      0.00000000	      0.00000000	      0.00000000	      0.00000000	      0.00504216	      0.00000000	      7.92083148	     -8.03294443	      4.38861844	     -6.46883602
      0.62916667	     -1.82569936	     -4.17082661	      8.26325131	     -0.01371111	      0.98759524	      0.26169058	     25.53866694	      3.45827743	     -8.16334311	     -4.64294009	     16.37957916	    -19.96306100	    -16.48899248	    -11.68927935	     -1.23028798	     19.38892146	    -15.35506618	      0.00000000	      0.00000000	      0.00000000	      0.00000000	      0.00502269	      0.00000000	      7.94639807	     -7.95509033	      4.27987087	     -6.39598140
      0.63333333	     -1.75804597	     -4.25402210	      8.32245062	     -0.00732041	      0.98666723	      0.26185990	     25.71894524	      3.57337276	     -8.04490495	     -5.51399187	     16.01155265	    -19.96039653	    -16.47809951	    -11.91552526	     -1.33014583	     19.36528979	    -15.74187419	      0.00000000	      0.00000000	      0.00000000	      0.00000000	      0.00554158	      0.00000000	      7.88752995	     -7.96351935	      4.48774709	     -6.49658514
      0.63750000	     -1.70284904	     -4.35158318	      8.44650022	     -0.00097277	      0.98581535	      0.26193656	     25.83255119	      3.68848717	     -7.80614257	     -6.25218812	     15.72323903	    -19.93050384	    -16.46295324	    -12.06761640	     -1.44252731	     19.41918820	    -16.22117206	      0.00000000	      0.00000000	      0.00000000	      0.00000000	      0.00617332	      0.00000000	      7.78737904	     -7.97573730	      4.71570636	     -6.52716349
      0.64166667	     -1.64947520	     -4.45498108	      8.37134778	      0.00554767	      0.98486137	      0.26228108	     26.14109197	      3.85746531	     -7.75522809	     -7.37135491	     15.18054727	    -20.04185350	    -16.25487879	    -12.27294981	     -1.53799059	     19.17925324	    -16.63506522	      0.00000000	      0.00000000	      0.00000000	      0.00000000	      0.00672122	      0.00000000	      7.70216214	     -7.95565887	      4.93426467	     -6.60779316
      0.64583333	     -1.77387249	     -4.53016453	      8.32274003	      0.01213911	      0.98367118	      0.26263350	     26.53934259	      3.96681900	     -7.56104691	     -8.26919592	     13.26355744	    -20.65003445	    -10.53835293	    -12.26104621	     -1.56998825	     19.07463567	    -17.12333758	      0.00000000	      0.00000000	      0.00000000	      0.00000000	      0.00731385	      0.00000000	      7.52408885	     -7.71300513	      5.08711087	     -6.61912839
      0.65000000	     -1.65306208	     -4.65564476	      8.33104386	      0.01857238	      0.98296819	      0.26284132	     26.70353015	      4.13174950	     -7.53325473	     -9.27259983	     12.80092372	    -20.65398653	    -10.53687485	    -12.44100801	     -1.68801761	     18.93129194	    -17.67544335	      0.00000000	      0.00000000	      0.00000000	      0.00000000	      0.00806121	      0.00000000	      7.44132881	     -7.79451339	      5.34445581	     -6.60747869
      0.65416667	     -1.55758199	     -4.79315904	      8.29331478	      0.02509769	      0.98224357	      0.26312831	     26.89017703	      4.32593574	     -7.43470320	    -10.28368163	     12.32714773	    -20.63994296	    -10.44916481	    -12.59833014	     -1.80435872	     18.76482311	    -18.23646652	      0.00000000	      0.00000000	      0.00000000	      0.00000000	      0.00878479	      0.00000000	      7.26650833	     -7.82952365	      5.61101299	     -6.57924175
      0.65833333	     -1.47931810	     -4.94874261	      8.19977348	      0.03160985	      0.98151728	      0.26350610	     27.10263705	      4.55488396	     -7.30871803	    -11.30650727	     11.82497195	    -20.61819559	    -10.17565212	    -12.70885092	     -1.92054373	     18.53599882	    -18.85400311	      0.00000000	      0.00000000	      0.00000000	      0.00000000	      0.00955289	      0.00000000	      7.05742428	     -7.84039061	      5.89409864	     -6.47267325
      0.66250000	     -1.38285695	     -5.08963878	      8.27086263	      0.03803586	      0.98104641	      0.26363406	     27.16310989	      4.72618785	     -7.09028824	    -12.09432528	     11.51629938	    -20.56529152	    -10.13943141	    -12.75501373	     -2.02903186	     18.53883684	    -19.58143098	      0.00000000	      0.00000000	      0.00000000	      0.00000000	      0.01055855	      0.00000000	      6.81514414	     -7.88841533	      6.17322513	     -6.44648731
      0.66666667	     -1.25749377	     -5.26440212	      8.02938436	      0.04473352	      0.98038370	      0.26418120	     27.44855287	      4.99830083	     -7.16362930	    -13.38957748	     10.87473916	    -20.58051667	     -9.93428078	    -12.92090220	     -2.14064955	     18.10231072	    -20.21101791	      0.00000000	      0.00000000	      0.00000000	      0.00000000	      0.01139488	      0.00000000	      6.58195316	     -7.94278874	      6.47145043	     -6.37842722
      0.67083333	     -1.15261716	     -5.42035153	      8.03109991	      0.05128161	      0.98001220	      0.26436879	     27.49485905	      5.19971333	     -6.98980854	    -14.20127230	     10.57117646	    -20.51766583	     -9.84062984	    -12.93779136	     -2.24012364	     18.01325146	    -21.01429874	      0.00000000	      0.00000000	      0.00000000	      0.00000000	      0.01252499	      0.00000000	      6.28667769	     -7.97065022	      6.75607110	     -6.31399967
      0.67500000	     -1.08548919	     -5.56263492	      7.74901079	      0.05826523	      0.97930032	      0.26481989	     27.83635525	      5.36231094	     -7.34672502	    -15.50330529	      8.59786183	    -20.54522155	     -2.67183423	    -13.00229115	     -2.28658997	     17.49007792	    -21.73442736	      0.00000000	      0.00000000	      0.00000000	      0.00000000	      0.01355127	      0.00000000	      5.98057054	     -7.94117508	      7.00198342	     -5.90661959
      0.67916667	     -0.95382185	     -5.71993871	      7.77220115	      0.06485545	      0.97916937	      0.26498964	     27.80723340	      5.55816573	     -7.19070659	    -16.26339410	      8.36346380	    -20.49486936	     -2.69067644	    -12.96034364	     -2.38179572	     17.40568164	    -22.66113645	      0.00000000	      0.00000000	      0.00000000	      0.00000000	      0.01498289	      0.00000000	      5.62131212	     -8.00140971	      7.29785751	     -5.88373107
